{
	"asset":{
		"generator":"Khronos glTF Blender I/O v4.4.56",
		"version":"2.0"
	},
	"extensionsUsed":[
		"KHR_materials_emissive_strength"
	],
	"scene":0,
	"scenes":[
		{
			"name":"Scene",
			"nodes":[
				0,
				1,
				2,
				3,
				4,
				5,
				6,
				7,
				8
			]
		}
	],
	"nodes":[
		{
			"mesh":0,
			"name":"Car",
			"translation":[
				0.019381722435355186,
				0.33369797468185425,
				0.31731316447257996
			]
		},
		{
			"name":"WheelPosFL",
			"rotation":[
				0,
				0.7071068286895752,
				0,
				0.7071068286895752
			],
			"scale":[
				0.22499999403953552,
				0.22499999403953552,
				0.1574999988079071
			],
			"translation":[
				0.6189708709716797,
				0.1361895501613617,
				1.3852908611297607
			]
		},
		{
			"name":"WheelPosRL",
			"rotation":[
				0,
				0.7071068286895752,
				0,
				0.7071068286895752
			],
			"scale":[
				0.22499999403953552,
				0.22499999403953552,
				0.1574999988079071
			],
			"translation":[
				0.6189708709716797,
				0.1361895501613617,
				-0.7675662040710449
			]
		},
		{
			"name":"WheelPosFR",
			"rotation":[
				0,
				0.7071068286895752,
				0,
				0.7071068286895752
			],
			"scale":[
				0.22499999403953552,
				0.22499999403953552,
				0.1574999988079071
			],
			"translation":[
				-0.5322401523590088,
				0.1361895501613617,
				1.3852908611297607
			]
		},
		{
			"name":"WheelPosRR",
			"rotation":[
				0,
				0.7071068286895752,
				0,
				0.7071068286895752
			],
			"scale":[
				0.22499999403953552,
				0.22499999403953552,
				0.1574999988079071
			],
			"translation":[
				-0.5322401523590088,
				0.1361895501613617,
				-0.7676181793212891
			]
		},
		{
			"name":"CollisionBox",
			"scale":[
				0.6151937246322632,
				0.26522356271743774,
				1.52919602394104
			],
			"translation":[
				0.03642522171139717,
				0.3481403589248657,
				0.31731316447257996
			]
		},
		{
			"name":"CollisionBox.001",
			"scale":[
				0.5211226344108582,
				0.17102418839931488,
				0.8018395304679871
			],
			"translation":[
				0.03642522171139717,
				0.7984741926193237,
				0.13130977749824524
			]
		},
		{
			"name":"HeadLightRight",
			"rotation":[
				0.7772945761680603,
				0,
				0,
				0.6291369795799255
			],
			"scale":[
				0.5,
				0.5,
				0.5
			],
			"translation":[
				-0.3970005214214325,
				0.47008225321769714,
				2.0191650390625
			]
		},
		{
			"name":"HeadLightLeft",
			"rotation":[
				0.7772945761680603,
				0,
				0,
				0.6291369795799255
			],
			"scale":[
				0.5,
				0.5,
				0.5
			],
			"translation":[
				0.48017802834510803,
				0.47008225321769714,
				2.0191650390625
			]
		}
	],
	"materials":[
		{
			"doubleSided":true,
			"name":"Body",
			"pbrMetallicRoughness":{
				"baseColorFactor":[
					0.1285400390625,
					0.3212890625,
					0.11431884765625,
					1
				],
				"metallicFactor":0,
				"roughnessFactor":0.20430107414722443
			}
		},
		{
			"doubleSided":true,
			"name":"Window",
			"pbrMetallicRoughness":{
				"baseColorFactor":[
					0.44663381576538086,
					0.46603453159332275,
					0.5271499752998352,
					1
				],
				"metallicFactor":0,
				"roughnessFactor":0.06451612710952759
			}
		},
		{
			"doubleSided":true,
			"name":"Unpainted Metal",
			"pbrMetallicRoughness":{
				"baseColorFactor":[
					0.800000011920929,
					0.800000011920929,
					0.800000011920929,
					1
				],
				"metallicFactor":0,
				"roughnessFactor":0.5
			}
		},
		{
			"doubleSided":true,
			"emissiveFactor":[
				0.5430860672541797,
				0.026956210913883893,
				0.03530749468162675
			],
			"name":"Backlight",
			"pbrMetallicRoughness":{
				"baseColorFactor":[
					0.7980077266693115,
					0.19715188443660736,
					0.19715188443660736,
					1
				],
				"metallicFactor":0,
				"roughnessFactor":0
			}
		},
		{
			"doubleSided":true,
			"name":"CarBottom",
			"pbrMetallicRoughness":{
				"baseColorFactor":[
					0.800000011920929,
					0.800000011920929,
					0.800000011920929,
					1
				],
				"metallicFactor":0,
				"roughnessFactor":0
			}
		},
		{
			"doubleSided":true,
			"emissiveFactor":[
				1,
				0.9316929578781128,
				0.5617055296897888
			],
			"extensions":{
				"KHR_materials_emissive_strength":{
					"emissiveStrength":2.1999998092651367
				}
			},
			"name":"HeadLight",
			"pbrMetallicRoughness":{
				"baseColorFactor":[
					0.39915212988853455,
					0.39915212988853455,
					0.39915212988853455,
					1
				],
				"metallicFactor":0,
				"roughnessFactor":0
			}
		}
	],
	"meshes":[
		{
			"name":"Cube",
			"primitives":[
				{
					"attributes":{
						"POSITION":0,
						"NORMAL":1,
						"TEXCOORD_0":2
					},
					"indices":3,
					"material":0
				},
				{
					"attributes":{
						"POSITION":4,
						"NORMAL":5,
						"TEXCOORD_0":6
					},
					"indices":7,
					"material":1
				},
				{
					"attributes":{
						"POSITION":8,
						"NORMAL":9,
						"TEXCOORD_0":10
					},
					"indices":11,
					"material":2
				},
				{
					"attributes":{
						"POSITION":12,
						"NORMAL":13,
						"TEXCOORD_0":14
					},
					"indices":15,
					"material":3
				},
				{
					"attributes":{
						"POSITION":16,
						"NORMAL":17,
						"TEXCOORD_0":18
					},
					"indices":19,
					"material":4
				},
				{
					"attributes":{
						"POSITION":20,
						"NORMAL":21,
						"TEXCOORD_0":22
					},
					"indices":23,
					"material":5
				}
			]
		}
	],
	"accessors":[
		{
			"bufferView":0,
			"componentType":5126,
			"count":734,
			"max":[
				0.6630200743675232,
				0.6488397121429443,
				1.6311663389205933
			],
			"min":[
				-0.6255001425743103,
				-0.21102969348430634,
				-1.4925662279129028
			],
			"type":"VEC3"
		},
		{
			"bufferView":1,
			"componentType":5126,
			"count":734,
			"type":"VEC3"
		},
		{
			"bufferView":2,
			"componentType":5126,
			"count":734,
			"type":"VEC2"
		},
		{
			"bufferView":3,
			"componentType":5123,
			"count":1590,
			"type":"SCALAR"
		},
		{
			"bufferView":4,
			"componentType":5126,
			"count":64,
			"max":[
				0.7666759490966797,
				0.596525251865387,
				1.5680179595947266
			],
			"min":[
				-0.7291560173034668,
				0.05390588939189911,
				-0.9971061944961548
			],
			"type":"VEC3"
		},
		{
			"bufferView":5,
			"componentType":5126,
			"count":64,
			"type":"VEC3"
		},
		{
			"bufferView":6,
			"componentType":5126,
			"count":64,
			"type":"VEC2"
		},
		{
			"bufferView":7,
			"componentType":5123,
			"count":120,
			"type":"SCALAR"
		},
		{
			"bufferView":8,
			"componentType":5126,
			"count":314,
			"max":[
				0.7788873314857483,
				0.3881407380104065,
				1.6494473218917847
			],
			"min":[
				-0.7413673996925354,
				-0.17813841998577118,
				-1.596125602722168
			],
			"type":"VEC3"
		},
		{
			"bufferView":9,
			"componentType":5126,
			"count":314,
			"type":"VEC3"
		},
		{
			"bufferView":10,
			"componentType":5126,
			"count":314,
			"type":"VEC2"
		},
		{
			"bufferView":11,
			"componentType":5123,
			"count":564,
			"type":"SCALAR"
		},
		{
			"bufferView":12,
			"componentType":5126,
			"count":42,
			"max":[
				0.5504543781280518,
				0.2417183667421341,
				-1.3967872858047485
			],
			"min":[
				-0.5129345655441284,
				0.05390588939189911,
				-1.526447057723999
			],
			"type":"VEC3"
		},
		{
			"bufferView":13,
			"componentType":5126,
			"count":42,
			"type":"VEC3"
		},
		{
			"bufferView":14,
			"componentType":5126,
			"count":42,
			"type":"VEC2"
		},
		{
			"bufferView":15,
			"componentType":5123,
			"count":72,
			"type":"SCALAR"
		},
		{
			"bufferView":16,
			"componentType":5126,
			"count":24,
			"max":[
				0.4640732407569885,
				0.11724360287189484,
				1.4516695737838745
			],
			"min":[
				-0.42655330896377563,
				-0.19208581745624542,
				-1.4335492849349976
			],
			"type":"VEC3"
		},
		{
			"bufferView":17,
			"componentType":5126,
			"count":24,
			"type":"VEC3"
		},
		{
			"bufferView":18,
			"componentType":5126,
			"count":24,
			"type":"VEC2"
		},
		{
			"bufferView":19,
			"componentType":5123,
			"count":36,
			"type":"SCALAR"
		},
		{
			"bufferView":20,
			"componentType":5126,
			"count":26,
			"max":[
				0.5504544377326965,
				0.2417183667421341,
				1.5892441272735596
			],
			"min":[
				-0.5129343867301941,
				0.05390588939189911,
				1.459584355354309
			],
			"type":"VEC3"
		},
		{
			"bufferView":21,
			"componentType":5126,
			"count":26,
			"type":"VEC3"
		},
		{
			"bufferView":22,
			"componentType":5126,
			"count":26,
			"type":"VEC2"
		},
		{
			"bufferView":23,
			"componentType":5123,
			"count":48,
			"type":"SCALAR"
		}
	],
	"bufferViews":[
		{
			"buffer":0,
			"byteLength":8808,
			"byteOffset":0,
			"target":34962
		},
		{
			"buffer":0,
			"byteLength":8808,
			"byteOffset":8808,
			"target":34962
		},
		{
			"buffer":0,
			"byteLength":5872,
			"byteOffset":17616,
			"target":34962
		},
		{
			"buffer":0,
			"byteLength":3180,
			"byteOffset":23488,
			"target":34963
		},
		{
			"buffer":0,
			"byteLength":768,
			"byteOffset":26668,
			"target":34962
		},
		{
			"buffer":0,
			"byteLength":768,
			"byteOffset":27436,
			"target":34962
		},
		{
			"buffer":0,
			"byteLength":512,
			"byteOffset":28204,
			"target":34962
		},
		{
			"buffer":0,
			"byteLength":240,
			"byteOffset":28716,
			"target":34963
		},
		{
			"buffer":0,
			"byteLength":3768,
			"byteOffset":28956,
			"target":34962
		},
		{
			"buffer":0,
			"byteLength":3768,
			"byteOffset":32724,
			"target":34962
		},
		{
			"buffer":0,
			"byteLength":2512,
			"byteOffset":36492,
			"target":34962
		},
		{
			"buffer":0,
			"byteLength":1128,
			"byteOffset":39004,
			"target":34963
		},
		{
			"buffer":0,
			"byteLength":504,
			"byteOffset":40132,
			"target":34962
		},
		{
			"buffer":0,
			"byteLength":504,
			"byteOffset":40636,
			"target":34962
		},
		{
			"buffer":0,
			"byteLength":336,
			"byteOffset":41140,
			"target":34962
		},
		{
			"buffer":0,
			"byteLength":144,
			"byteOffset":41476,
			"target":34963
		},
		{
			"buffer":0,
			"byteLength":288,
			"byteOffset":41620,
			"target":34962
		},
		{
			"buffer":0,
			"byteLength":288,
			"byteOffset":41908,
			"target":34962
		},
		{
			"buffer":0,
			"byteLength":192,
			"byteOffset":42196,
			"target":34962
		},
		{
			"buffer":0,
			"byteLength":72,
			"byteOffset":42388,
			"target":34963
		},
		{
			"buffer":0,
			"byteLength":312,
			"byteOffset":42460,
			"target":34962
		},
		{
			"buffer":0,
			"byteLength":312,
			"byteOffset":42772,
			"target":34962
		},
		{
			"buffer":0,
			"byteLength":208,
			"byteOffset":43084,
			"target":34962
		},
		{
			"buffer":0,
			"byteLength":96,
			"byteOffset":43292,
			"target":34963
		}
	],
	"buffers":[
		{
			"byteLength":43388,
			"uri":"mycar.bin"
		}
	]
}
