{
	"asset":{
		"generator":"Khronos glTF Blender I/O v5.0.21",
		"version":"2.0"
	},
	"extensionsUsed":[
		"KHR_lights_punctual"
	],
	"extensionsRequired":[
		"KHR_lights_punctual"
	],
	"extensions":{
		"KHR_lights_punctual":{
			"lights":[
				{
					"color":[
						1,
						1,
						1
					],
					"intensity":2.869999885559082,
					"type":"directional",
					"name":"Sun"
				}
			]
		}
	},
	"scene":0,
	"scenes":[
		{
			"name":"Scene",
			"nodes":[
				0,
				1,
				2,
				3,
				4,
				5,
				6,
				7,
				8,
				9,
				10,
				11,
				12,
				13,
				14,
				15,
				16,
				17,
				18,
				19
			]
		}
	],
	"nodes":[
		{
			"mesh":0,
			"name":"Plane"
		},
		{
			"mesh":1,
			"name":"Road"
		},
		{
			"name":"NurbsPath"
		},
		{
			"name":"RACE_START",
			"rotation":[
				0,
				-0.0361819863319397,
				0,
				0.9993453025817871
			],
			"translation":[
				7.8399834632873535,
				0.6765197515487671,
				2.5498712062835693
			]
		},
		{
			"name":"checkpoint.001",
			"translation":[
				5.4712138175964355,
				1.0134332180023193,
				15.601921081542969
			]
		},
		{
			"name":"checkpoint.002",
			"translation":[
				2.572887897491455,
				1.0134332180023193,
				37.04953384399414
			]
		},
		{
			"name":"checkpoint.003",
			"translation":[
				2.862720489501953,
				1.0134332180023193,
				73.56844329833984
			]
		},
		{
			"name":"checkpoint.004",
			"translation":[
				2.862720489501953,
				1.0134332180023193,
				100.52287292480469
			]
		},
		{
			"name":"checkpoint.005",
			"translation":[
				-29.308696746826172,
				1.0134332180023193,
				121.39082336425781
			]
		},
		{
			"name":"checkpoint.006",
			"translation":[
				-72.4937515258789,
				1.0134332180023193,
				143.7079315185547
			]
		},
		{
			"name":"checkpoint.007",
			"translation":[
				-75.6819076538086,
				1.0134332180023193,
				190.08114624023438
			]
		},
		{
			"name":"checkpoint.008",
			"translation":[
				-83.7972183227539,
				1.0134332180023193,
				224.86105346679688
			]
		},
		{
			"name":"checkpoint.009",
			"translation":[
				-143.79257202148438,
				1.0134332180023193,
				223.70172119140625
			]
		},
		{
			"name":"checkpoint.010",
			"translation":[
				-158.57403564453125,
				1.0134332180023193,
				184.57431030273438
			]
		},
		{
			"name":"checkpoint.011",
			"translation":[
				-162.92152404785156,
				1.0134332180023193,
				94.14653778076172
			]
		},
		{
			"name":"checkpoint.012",
			"translation":[
				-162.92152404785156,
				1.0134332180023193,
				-3.2372207641601562
			]
		},
		{
			"name":"checkpoint.013",
			"translation":[
				-136.25692749023438,
				1.0134332180023193,
				-23.52550506591797
			]
		},
		{
			"name":"checkpoint.014",
			"translation":[
				-62.34961700439453,
				1.0134332180023193,
				-24.395002365112305
			]
		},
		{
			"name":"checkpoint.015",
			"translation":[
				-6.701759338378906,
				1.0134332180023193,
				-9.61353874206543
			]
		},
		{
			"extensions":{
				"KHR_lights_punctual":{
					"light":0
				}
			},
			"name":"Sun",
			"rotation":[
				-0.7013007402420044,
				0.3489178717136383,
				-0.17713524401187897,
				0.5958663821220398
			],
			"translation":[
				13.915225982666016,
				44.506996154785156,
				13.129210472106934
			]
		}
	],
	"materials":[
		{
			"doubleSided":true,
			"name":"Grass.001",
			"normalTexture":{
				"index":0
			},
			"pbrMetallicRoughness":{
				"baseColorTexture":{
					"index":1
				},
				"metallicFactor":0,
				"metallicRoughnessTexture":{
					"index":2
				}
			}
		},
		{
			"doubleSided":true,
			"name":"Curb.002",
			"pbrMetallicRoughness":{
				"baseColorFactor":[
					0.800000011920929,
					0.800000011920929,
					0.800000011920929,
					1
				],
				"metallicFactor":0,
				"roughnessFactor":0.8655914068222046
			}
		},
		{
			"doubleSided":true,
			"name":"Road.003",
			"normalTexture":{
				"index":3
			},
			"pbrMetallicRoughness":{
				"baseColorTexture":{
					"index":4
				},
				"metallicFactor":0,
				"roughnessFactor":0.7751572132110596
			}
		}
	],
	"meshes":[
		{
			"name":"Plane",
			"primitives":[
				{
					"attributes":{
						"POSITION":0,
						"NORMAL":1,
						"TEXCOORD_0":2
					},
					"indices":3,
					"material":0
				}
			]
		},
		{
			"name":"Plane.003",
			"primitives":[
				{
					"attributes":{
						"POSITION":4,
						"NORMAL":5,
						"TEXCOORD_0":6
					},
					"indices":7,
					"material":1
				},
				{
					"attributes":{
						"POSITION":8,
						"NORMAL":9,
						"TEXCOORD_0":10
					},
					"indices":11,
					"material":2
				}
			]
		}
	],
	"textures":[
		{
			"sampler":0,
			"source":0
		},
		{
			"sampler":0,
			"source":1
		},
		{
			"sampler":0,
			"source":2
		},
		{
			"sampler":0,
			"source":3
		},
		{
			"sampler":0,
			"source":4
		}
	],
	"images":[
		{
			"mimeType":"image/png",
			"name":"dirtgrass_normals",
			"uri":"dirtgrass_normals.png"
		},
		{
			"mimeType":"image/png",
			"name":"dirtgrass_noshadow",
			"uri":"dirtgrass_noshadow.png"
		},
		{
			"mimeType":"image/png",
			"name":"dirtgrass_roughness",
			"uri":"dirtgrass_roughness.png"
		},
		{
			"mimeType":"image/png",
			"name":"RoadNormal",
			"uri":"RoadNormal.png"
		},
		{
			"mimeType":"image/png",
			"name":"road",
			"uri":"road.png"
		}
	],
	"accessors":[
		{
			"bufferView":0,
			"componentType":5126,
			"count":2863,
			"max":[
				3.9232711791992188,
				0,
				224.68020629882812
			],
			"min":[
				-160.78665161132812,
				0,
				-23.458755493164062
			],
			"type":"VEC3"
		},
		{
			"bufferView":1,
			"componentType":5126,
			"count":2863,
			"type":"VEC3"
		},
		{
			"bufferView":2,
			"componentType":5126,
			"count":2863,
			"type":"VEC2"
		},
		{
			"bufferView":3,
			"componentType":5123,
			"count":16440,
			"type":"SCALAR"
		},
		{
			"bufferView":4,
			"componentType":5126,
			"count":11400,
			"max":[
				10.96552848815918,
				0.1869741678237915,
				231.3412628173828
			],
			"min":[
				-167.58399963378906,
				-0.7243385314941406,
				-30.26190185546875
			],
			"type":"VEC3"
		},
		{
			"bufferView":5,
			"componentType":5126,
			"count":11400,
			"type":"VEC3"
		},
		{
			"bufferView":6,
			"componentType":5126,
			"count":11400,
			"type":"VEC2"
		},
		{
			"bufferView":7,
			"componentType":5123,
			"count":17100,
			"type":"SCALAR"
		},
		{
			"bufferView":8,
			"componentType":5126,
			"count":5694,
			"max":[
				10.878561973571777,
				9.5367431640625e-07,
				231.25428771972656
			],
			"min":[
				-167.4970245361328,
				-9.5367431640625e-07,
				-30.174936294555664
			],
			"type":"VEC3"
		},
		{
			"bufferView":9,
			"componentType":5126,
			"count":5694,
			"type":"VEC3"
		},
		{
			"bufferView":10,
			"componentType":5126,
			"count":5694,
			"type":"VEC2"
		},
		{
			"bufferView":11,
			"componentType":5123,
			"count":11388,
			"type":"SCALAR"
		}
	],
	"bufferViews":[
		{
			"buffer":0,
			"byteLength":34356,
			"byteOffset":0,
			"target":34962
		},
		{
			"buffer":0,
			"byteLength":34356,
			"byteOffset":34356,
			"target":34962
		},
		{
			"buffer":0,
			"byteLength":22904,
			"byteOffset":68712,
			"target":34962
		},
		{
			"buffer":0,
			"byteLength":32880,
			"byteOffset":91616,
			"target":34963
		},
		{
			"buffer":0,
			"byteLength":136800,
			"byteOffset":124496,
			"target":34962
		},
		{
			"buffer":0,
			"byteLength":136800,
			"byteOffset":261296,
			"target":34962
		},
		{
			"buffer":0,
			"byteLength":91200,
			"byteOffset":398096,
			"target":34962
		},
		{
			"buffer":0,
			"byteLength":34200,
			"byteOffset":489296,
			"target":34963
		},
		{
			"buffer":0,
			"byteLength":68328,
			"byteOffset":523496,
			"target":34962
		},
		{
			"buffer":0,
			"byteLength":68328,
			"byteOffset":591824,
			"target":34962
		},
		{
			"buffer":0,
			"byteLength":45552,
			"byteOffset":660152,
			"target":34962
		},
		{
			"buffer":0,
			"byteLength":22776,
			"byteOffset":705704,
			"target":34963
		}
	],
	"samplers":[
		{
			"magFilter":9729,
			"minFilter":9987
		}
	],
	"buffers":[
		{
			"byteLength":728480,
			"uri":"racetrack2.bin"
		}
	]
}
