{
	"asset":{
		"generator":"Khronos glTF Blender I/O v4.4.56",
		"version":"2.0"
	},
	"scene":0,
	"scenes":[
		{
			"name":"Scene",
			"nodes":[
				0
			]
		}
	],
	"nodes":[
		{
			"mesh":0,
			"name":"Wheel",
			"rotation":[
				0,
				0,
				-1,
				7.549790126404332e-08
			]
		}
	],
	"materials":[
		{
			"doubleSided":true,
			"name":"Tire",
			"pbrMetallicRoughness":{
				"baseColorFactor":[
					0,
					0,
					0,
					1
				],
				"metallicFactor":0,
				"roughnessFactor":0.9295774698257446
			}
		},
		{
			"doubleSided":true,
			"name":"Rim",
			"pbrMetallicRoughness":{
				"baseColorFactor":[
					0.7974600195884705,
					0.7974600195884705,
					0.7974600195884705,
					1
				],
				"metallicFactor":0,
				"roughnessFactor":0.31690141558647156
			}
		},
		{
			"doubleSided":true,
			"name":"Material",
			"pbrMetallicRoughness":{
				"baseColorFactor":[
					0,
					0,
					0,
					1
				]
			}
		}
	],
	"meshes":[
		{
			"name":"Cylinder",
			"primitives":[
				{
					"attributes":{
						"POSITION":0,
						"NORMAL":1,
						"TEXCOORD_0":2
					},
					"indices":3,
					"material":0
				},
				{
					"attributes":{
						"POSITION":4,
						"NORMAL":5,
						"TEXCOORD_0":6
					},
					"indices":7,
					"material":1
				},
				{
					"attributes":{
						"POSITION":8,
						"NORMAL":9,
						"TEXCOORD_0":10
					},
					"indices":11,
					"material":2
				}
			]
		}
	],
	"accessors":[
		{
			"bufferView":0,
			"componentType":5126,
			"count":547,
			"max":[
				0.3144128620624542,
				0.13539107143878937,
				0.3144128620624542
			],
			"min":[
				-0.3144128620624542,
				-0.13539107143878937,
				-0.3144128620624542
			],
			"type":"VEC3"
		},
		{
			"bufferView":1,
			"componentType":5126,
			"count":547,
			"type":"VEC3"
		},
		{
			"bufferView":2,
			"componentType":5126,
			"count":547,
			"type":"VEC2"
		},
		{
			"bufferView":3,
			"componentType":5123,
			"count":2112,
			"type":"SCALAR"
		},
		{
			"bufferView":4,
			"componentType":5126,
			"count":564,
			"max":[
				0.19325177371501923,
				0.12673170864582062,
				0.19325177371501923
			],
			"min":[
				-0.19325177371501923,
				-0.12673170864582062,
				-0.19325177371501923
			],
			"type":"VEC3"
		},
		{
			"bufferView":5,
			"componentType":5126,
			"count":564,
			"type":"VEC3"
		},
		{
			"bufferView":6,
			"componentType":5126,
			"count":564,
			"type":"VEC2"
		},
		{
			"bufferView":7,
			"componentType":5123,
			"count":2340,
			"type":"SCALAR"
		},
		{
			"bufferView":8,
			"componentType":5126,
			"count":806,
			"max":[
				0.17974326014518738,
				0.12673170864582062,
				0.18355099856853485
			],
			"min":[
				-0.18203537166118622,
				-0.12673170864582062,
				-0.18514253199100494
			],
			"type":"VEC3"
		},
		{
			"bufferView":9,
			"componentType":5126,
			"count":806,
			"type":"VEC3"
		},
		{
			"bufferView":10,
			"componentType":5126,
			"count":806,
			"type":"VEC2"
		},
		{
			"bufferView":11,
			"componentType":5123,
			"count":2316,
			"type":"SCALAR"
		}
	],
	"bufferViews":[
		{
			"buffer":0,
			"byteLength":6564,
			"byteOffset":0,
			"target":34962
		},
		{
			"buffer":0,
			"byteLength":6564,
			"byteOffset":6564,
			"target":34962
		},
		{
			"buffer":0,
			"byteLength":4376,
			"byteOffset":13128,
			"target":34962
		},
		{
			"buffer":0,
			"byteLength":4224,
			"byteOffset":17504,
			"target":34963
		},
		{
			"buffer":0,
			"byteLength":6768,
			"byteOffset":21728,
			"target":34962
		},
		{
			"buffer":0,
			"byteLength":6768,
			"byteOffset":28496,
			"target":34962
		},
		{
			"buffer":0,
			"byteLength":4512,
			"byteOffset":35264,
			"target":34962
		},
		{
			"buffer":0,
			"byteLength":4680,
			"byteOffset":39776,
			"target":34963
		},
		{
			"buffer":0,
			"byteLength":9672,
			"byteOffset":44456,
			"target":34962
		},
		{
			"buffer":0,
			"byteLength":9672,
			"byteOffset":54128,
			"target":34962
		},
		{
			"buffer":0,
			"byteLength":6448,
			"byteOffset":63800,
			"target":34962
		},
		{
			"buffer":0,
			"byteLength":4632,
			"byteOffset":70248,
			"target":34963
		}
	],
	"buffers":[
		{
			"byteLength":74880,
			"uri":"silvia_wheel.bin"
		}
	]
}
