{
	"asset":{
		"generator":"Khronos glTF Blender I/O v4.4.56",
		"version":"2.0"
	},
	"scene":0,
	"scenes":[
		{
			"name":"Scene",
			"nodes":[
				0,
				1,
				2
			]
		}
	],
	"nodes":[
		{
			"mesh":0,
			"name":"Plane"
		},
		{
			"mesh":1,
			"name":"Tree",
			"translation":[
				-42.778419494628906,
				-0.11645913124084473,
				-4.81466007232666
			]
		},
		{
			"mesh":2,
			"name":"Tree.001",
			"translation":[
				-22.445098876953125,
				-0.11645913124084473,
				-36.88680648803711
			]
		}
	],
	"materials":[
		{
			"doubleSided":true,
			"name":"Material",
			"pbrMetallicRoughness":{
				"baseColorTexture":{
					"index":0
				},
				"metallicFactor":0,
				"roughnessFactor":0.5
			}
		},
		{
			"doubleSided":true,
			"name":"Leaves",
			"pbrMetallicRoughness":{
				"baseColorFactor":[
					0.0578618124127388,
					0.1409909874200821,
					0.05266061797738075,
					1
				],
				"metallicFactor":0,
				"roughnessFactor":0.5
			}
		},
		{
			"doubleSided":true,
			"name":"Wood",
			"pbrMetallicRoughness":{
				"baseColorFactor":[
					0.05215013772249222,
					0.03242885693907738,
					0.0261397622525692,
					1
				],
				"metallicFactor":0,
				"roughnessFactor":0.5
			}
		}
	],
	"meshes":[
		{
			"name":"Plane",
			"primitives":[
				{
					"attributes":{
						"POSITION":0,
						"NORMAL":1,
						"TEXCOORD_0":2
					},
					"indices":3,
					"material":0
				}
			]
		},
		{
			"name":"Cone",
			"primitives":[
				{
					"attributes":{
						"POSITION":4,
						"NORMAL":5,
						"TEXCOORD_0":6
					},
					"indices":7,
					"material":1
				},
				{
					"attributes":{
						"POSITION":8,
						"NORMAL":9,
						"TEXCOORD_0":10
					},
					"indices":11,
					"material":2
				}
			]
		},
		{
			"name":"Cone.001",
			"primitives":[
				{
					"attributes":{
						"POSITION":12,
						"NORMAL":13,
						"TEXCOORD_0":14
					},
					"indices":7,
					"material":1
				},
				{
					"attributes":{
						"POSITION":15,
						"NORMAL":16,
						"TEXCOORD_0":17
					},
					"indices":11,
					"material":2
				}
			]
		}
	],
	"textures":[
		{
			"sampler":0,
			"source":0
		}
	],
	"images":[
		{
			"mimeType":"image/png",
			"name":"dirtgrass",
			"uri":"dirtgrass.png"
		}
	],
	"accessors":[
		{
			"bufferView":0,
			"componentType":5126,
			"count":4225,
			"max":[
				86.33282470703125,
				19.5083065032959,
				84.61886596679688
			],
			"min":[
				-84.6301498413086,
				-2.8211073875427246,
				-84.65838623046875
			],
			"type":"VEC3"
		},
		{
			"bufferView":1,
			"componentType":5126,
			"count":4225,
			"type":"VEC3"
		},
		{
			"bufferView":2,
			"componentType":5126,
			"count":4225,
			"type":"VEC2"
		},
		{
			"bufferView":3,
			"componentType":5123,
			"count":24576,
			"type":"SCALAR"
		},
		{
			"bufferView":4,
			"componentType":5126,
			"count":17,
			"max":[
				2.0999999046325684,
				8.363129615783691,
				2.0999999046325684
			],
			"min":[
				-2.0999999046325684,
				2.3031296730041504,
				-2.0999999046325684
			],
			"type":"VEC3"
		},
		{
			"bufferView":5,
			"componentType":5126,
			"count":17,
			"type":"VEC3"
		},
		{
			"bufferView":6,
			"componentType":5126,
			"count":17,
			"type":"VEC2"
		},
		{
			"bufferView":7,
			"componentType":5123,
			"count":42,
			"type":"SCALAR"
		},
		{
			"bufferView":8,
			"componentType":5126,
			"count":14,
			"max":[
				0.28958243131637573,
				2.3622946739196777,
				0.3483401834964752
			],
			"min":[
				-0.3051990568637848,
				-0.3740028142929077,
				-0.33845534920692444
			],
			"type":"VEC3"
		},
		{
			"bufferView":9,
			"componentType":5126,
			"count":14,
			"type":"VEC3"
		},
		{
			"bufferView":10,
			"componentType":5126,
			"count":14,
			"type":"VEC2"
		},
		{
			"bufferView":11,
			"componentType":5123,
			"count":36,
			"type":"SCALAR"
		},
		{
			"bufferView":12,
			"componentType":5126,
			"count":17,
			"max":[
				2.0999999046325684,
				8.363129615783691,
				2.0999999046325684
			],
			"min":[
				-2.0999999046325684,
				2.3031296730041504,
				-2.0999999046325684
			],
			"type":"VEC3"
		},
		{
			"bufferView":13,
			"componentType":5126,
			"count":17,
			"type":"VEC3"
		},
		{
			"bufferView":14,
			"componentType":5126,
			"count":17,
			"type":"VEC2"
		},
		{
			"bufferView":15,
			"componentType":5126,
			"count":14,
			"max":[
				0.28958243131637573,
				2.3622946739196777,
				0.3483401834964752
			],
			"min":[
				-0.3051990568637848,
				-0.3740028142929077,
				-0.33845534920692444
			],
			"type":"VEC3"
		},
		{
			"bufferView":16,
			"componentType":5126,
			"count":14,
			"type":"VEC3"
		},
		{
			"bufferView":17,
			"componentType":5126,
			"count":14,
			"type":"VEC2"
		}
	],
	"bufferViews":[
		{
			"buffer":0,
			"byteLength":50700,
			"byteOffset":0,
			"target":34962
		},
		{
			"buffer":0,
			"byteLength":50700,
			"byteOffset":50700,
			"target":34962
		},
		{
			"buffer":0,
			"byteLength":33800,
			"byteOffset":101400,
			"target":34962
		},
		{
			"buffer":0,
			"byteLength":49152,
			"byteOffset":135200,
			"target":34963
		},
		{
			"buffer":0,
			"byteLength":204,
			"byteOffset":184352,
			"target":34962
		},
		{
			"buffer":0,
			"byteLength":204,
			"byteOffset":184556,
			"target":34962
		},
		{
			"buffer":0,
			"byteLength":136,
			"byteOffset":184760,
			"target":34962
		},
		{
			"buffer":0,
			"byteLength":84,
			"byteOffset":184896,
			"target":34963
		},
		{
			"buffer":0,
			"byteLength":168,
			"byteOffset":184980,
			"target":34962
		},
		{
			"buffer":0,
			"byteLength":168,
			"byteOffset":185148,
			"target":34962
		},
		{
			"buffer":0,
			"byteLength":112,
			"byteOffset":185316,
			"target":34962
		},
		{
			"buffer":0,
			"byteLength":72,
			"byteOffset":185428,
			"target":34963
		},
		{
			"buffer":0,
			"byteLength":204,
			"byteOffset":185500,
			"target":34962
		},
		{
			"buffer":0,
			"byteLength":204,
			"byteOffset":185704,
			"target":34962
		},
		{
			"buffer":0,
			"byteLength":136,
			"byteOffset":185908,
			"target":34962
		},
		{
			"buffer":0,
			"byteLength":168,
			"byteOffset":186044,
			"target":34962
		},
		{
			"buffer":0,
			"byteLength":168,
			"byteOffset":186212,
			"target":34962
		},
		{
			"buffer":0,
			"byteLength":112,
			"byteOffset":186380,
			"target":34962
		}
	],
	"samplers":[
		{
			"magFilter":9729,
			"minFilter":9987
		}
	],
	"buffers":[
		{
			"byteLength":186492,
			"uri":"simple_map2.bin"
		}
	]
}
