{
	"asset":{
		"generator":"Khronos glTF Blender I/O v4.4.56",
		"version":"2.0"
	},
	"extensionsUsed":[
		"KHR_lights_punctual"
	],
	"extensionsRequired":[
		"KHR_lights_punctual"
	],
	"extensions":{
		"KHR_lights_punctual":{
			"lights":[
				{
					"color":[
						1,
						1,
						1
					],
					"intensity":1.149999976158142,
					"type":"directional",
					"name":"Light"
				}
			]
		}
	},
	"scene":0,
	"scenes":[
		{
			"name":"Scene",
			"nodes":[
				0,
				1,
				2
			]
		}
	],
	"nodes":[
		{
			"extensions":{
				"KHR_lights_punctual":{
					"light":0
				}
			},
			"name":"Sun",
			"rotation":[
				-0.09439381211996078,
				0.7849721312522888,
				0.20464758574962616,
				0.5770857334136963
			],
			"translation":[
				78.52088165283203,
				78.89928436279297,
				-290.0315246582031
			]
		},
		{
			"mesh":0,
			"name":"Road",
			"scale":[
				1,
				1,
				1.1801073551177979
			],
			"translation":[
				4.2602033615112305,
				6.652196407318115,
				-292.64361572265625
			]
		},
		{
			"mesh":1,
			"name":"Plane.001",
			"translation":[
				16.107948303222656,
				0,
				88.81136322021484
			]
		}
	],
	"materials":[
		{
			"doubleSided":true,
			"name":"Road",
			"pbrMetallicRoughness":{
				"baseColorFactor":[
					0.119111068546772,
					0.119111068546772,
					0.119111068546772,
					1
				],
				"metallicFactor":0,
				"roughnessFactor":0.8103448152542114
			}
		},
		{
			"doubleSided":true,
			"name":"Ground",
			"pbrMetallicRoughness":{
				"baseColorFactor":[
					0.5561396479606628,
					0.7064630389213562,
					0.3739367723464966,
					1
				],
				"metallicFactor":0,
				"roughnessFactor":0.8045976758003235
			}
		}
	],
	"meshes":[
		{
			"name":"Plane",
			"primitives":[
				{
					"attributes":{
						"POSITION":0,
						"NORMAL":1,
						"TEXCOORD_0":2
					},
					"indices":3,
					"material":0
				}
			]
		},
		{
			"name":"Plane.002",
			"primitives":[
				{
					"attributes":{
						"POSITION":4,
						"NORMAL":5,
						"TEXCOORD_0":6
					},
					"indices":7,
					"material":1
				}
			]
		}
	],
	"accessors":[
		{
			"bufferView":0,
			"componentType":5126,
			"count":2664,
			"max":[
				113.56636810302734,
				3.549456596374512e-05,
				775.9961547851562
			],
			"min":[
				-109.8557357788086,
				-8.694938659667969,
				-101.1976547241211
			],
			"type":"VEC3"
		},
		{
			"bufferView":1,
			"componentType":5126,
			"count":2664,
			"type":"VEC3"
		},
		{
			"bufferView":2,
			"componentType":5126,
			"count":2664,
			"type":"VEC2"
		},
		{
			"bufferView":3,
			"componentType":5123,
			"count":3996,
			"type":"SCALAR"
		},
		{
			"bufferView":4,
			"componentType":5126,
			"count":2231,
			"max":[
				158.03179931640625,
				15.214576721191406,
				629.6034545898438
			],
			"min":[
				-158.43309020996094,
				-4.443618297576904,
				-629.5635375976562
			],
			"type":"VEC3"
		},
		{
			"bufferView":5,
			"componentType":5126,
			"count":2231,
			"type":"VEC3"
		},
		{
			"bufferView":6,
			"componentType":5126,
			"count":2231,
			"type":"VEC2"
		},
		{
			"bufferView":7,
			"componentType":5123,
			"count":12867,
			"type":"SCALAR"
		}
	],
	"bufferViews":[
		{
			"buffer":0,
			"byteLength":31968,
			"byteOffset":0,
			"target":34962
		},
		{
			"buffer":0,
			"byteLength":31968,
			"byteOffset":31968,
			"target":34962
		},
		{
			"buffer":0,
			"byteLength":21312,
			"byteOffset":63936,
			"target":34962
		},
		{
			"buffer":0,
			"byteLength":7992,
			"byteOffset":85248,
			"target":34963
		},
		{
			"buffer":0,
			"byteLength":26772,
			"byteOffset":93240,
			"target":34962
		},
		{
			"buffer":0,
			"byteLength":26772,
			"byteOffset":120012,
			"target":34962
		},
		{
			"buffer":0,
			"byteLength":17848,
			"byteOffset":146784,
			"target":34962
		},
		{
			"buffer":0,
			"byteLength":25734,
			"byteOffset":164632,
			"target":34963
		}
	],
	"buffers":[
		{
			"byteLength":190368,
			"uri":"map1.bin"
		}
	]
}
