{
	"asset":{
		"generator":"Khronos glTF Blender I/O v4.4.56",
		"version":"2.0"
	},
	"extensionsUsed":[
		"KHR_lights_punctual"
	],
	"extensionsRequired":[
		"KHR_lights_punctual"
	],
	"extensions":{
		"KHR_lights_punctual":{
			"lights":[
				{
					"color":[
						1,
						1,
						1
					],
					"intensity":0.6699999570846558,
					"type":"directional",
					"name":"Light"
				},
				{
					"color":[
						1,
						1,
						1
					],
					"intensity":1000,
					"spot":{
						"innerConeAngle":0.35456198971746744,
						"outerConeAngle":0.7278022766113281
					},
					"type":"spot",
					"name":"Spot.003"
				},
				{
					"color":[
						1,
						1,
						1
					],
					"intensity":1000,
					"spot":{
						"innerConeAngle":0.35456198971746744,
						"outerConeAngle":0.7278022766113281
					},
					"type":"spot",
					"name":"Spot.001"
				},
				{
					"color":[
						1,
						1,
						1
					],
					"intensity":1000,
					"spot":{
						"innerConeAngle":0.35456198971746744,
						"outerConeAngle":0.7278022766113281
					},
					"type":"spot",
					"name":"Spot.007"
				},
				{
					"color":[
						1,
						1,
						1
					],
					"intensity":1000,
					"spot":{
						"innerConeAngle":0.35456198971746744,
						"outerConeAngle":0.7278022766113281
					},
					"type":"spot",
					"name":"Spot.006"
				},
				{
					"color":[
						1,
						1,
						1
					],
					"intensity":1000,
					"spot":{
						"innerConeAngle":0.35456198971746744,
						"outerConeAngle":0.7278022766113281
					},
					"type":"spot",
					"name":"Spot.005"
				},
				{
					"color":[
						1,
						1,
						1
					],
					"intensity":1000,
					"spot":{
						"innerConeAngle":0.35456198971746744,
						"outerConeAngle":0.7278022766113281
					},
					"type":"spot",
					"name":"Spot.004"
				},
				{
					"color":[
						1,
						1,
						1
					],
					"intensity":1000,
					"spot":{
						"innerConeAngle":0.35456198971746744,
						"outerConeAngle":0.7278022766113281
					},
					"type":"spot",
					"name":"Spot.002"
				}
			]
		}
	},
	"scene":0,
	"scenes":[
		{
			"name":"Scene",
			"nodes":[
				0,
				1,
				2,
				3,
				4,
				5,
				6,
				7,
				8,
				9,
				10,
				11,
				12,
				13,
				14,
				15,
				16,
				17,
				18,
				19,
				20,
				21,
				22,
				23,
				24,
				25,
				26,
				27,
				28
			]
		}
	],
	"nodes":[
		{
			"extensions":{
				"KHR_lights_punctual":{
					"light":0
				}
			},
			"name":"Sun",
			"rotation":[
				-0.09439381211996078,
				0.7849721312522888,
				0.20464758574962616,
				0.5770857334136963
			],
			"translation":[
				78.52088165283203,
				78.89928436279297,
				-290.0315246582031
			]
		},
		{
			"mesh":0,
			"name":"Road",
			"scale":[
				1,
				1,
				1.1801073551177979
			],
			"translation":[
				4.2602033615112305,
				6.652196407318115,
				-292.64361572265625
			]
		},
		{
			"mesh":1,
			"name":"Terrain",
			"translation":[
				16.107948303222656,
				0,
				88.81136322021484
			]
		},
		{
			"extensions":{
				"KHR_lights_punctual":{
					"light":1
				}
			},
			"name":"Spot.003",
			"rotation":[
				-0.004136818926781416,
				0.7910155653953552,
				0.6117587089538574,
				0.005348985083401203
			],
			"translation":[
				-76.79946899414062,
				10.223376274108887,
				-413.3019104003906
			]
		},
		{
			"extensions":{
				"KHR_lights_punctual":{
					"light":2
				}
			},
			"name":"Spot.001",
			"rotation":[
				-0.6117727160453796,
				0,
				0,
				0.7910336256027222
			],
			"translation":[
				-93.60814666748047,
				10.223376274108887,
				-398.9171447753906
			]
		},
		{
			"extensions":{
				"KHR_lights_punctual":{
					"light":3
				}
			},
			"name":"Spot.007",
			"rotation":[
				-0.565663754940033,
				-0.3012770712375641,
				-0.23300281167030334,
				0.7314139604568481
			],
			"translation":[
				-23.61473846435547,
				10.223376274108887,
				-385.667724609375
			]
		},
		{
			"name":"SpawnPoint",
			"rotation":[
				0,
				0,
				-0.6828415989875793,
				0.7305664420127869
			],
			"translation":[
				-100.62433624267578,
				0.7641584873199463,
				-406.69561767578125
			]
		},
		{
			"name":"checkpoint.001",
			"scale":[
				2,
				2,
				2
			],
			"translation":[
				-54.78557205200195,
				2.6360087394714355,
				-406.96441650390625
			]
		},
		{
			"name":"checkpoint.002",
			"scale":[
				2,
				2,
				2
			],
			"translation":[
				-20.465728759765625,
				1.350522518157959,
				-392.51690673828125
			]
		},
		{
			"name":"checkpoint.003",
			"scale":[
				2,
				2,
				2
			],
			"translation":[
				-2.2765655517578125,
				1.7923818826675415,
				-365.849609375
			]
		},
		{
			"name":"checkpoint.004",
			"scale":[
				2,
				2,
				2
			],
			"translation":[
				5.573690891265869,
				2.066769599914551,
				-305.6034851074219
			]
		},
		{
			"name":"checkpoint.005",
			"scale":[
				2,
				2,
				2
			],
			"translation":[
				9.062692642211914,
				2.066769599914551,
				-247.95372009277344
			]
		},
		{
			"name":"checkpoint.006",
			"scale":[
				2,
				2,
				2
			],
			"translation":[
				7.3181867599487305,
				2.2527225017547607,
				-132.08639526367188
			]
		},
		{
			"name":"checkpoint.007",
			"scale":[
				2,
				2,
				2
			],
			"translation":[
				2.0846762657165527,
				2.675342559814453,
				8.345993041992188
			]
		},
		{
			"name":"checkpoint.008",
			"scale":[
				2,
				2,
				2
			],
			"translation":[
				6.445924758911133,
				4.663064956665039,
				184.82867431640625
			]
		},
		{
			"name":"checkpoint.009",
			"scale":[
				2,
				2,
				2
			],
			"translation":[
				10.80717658996582,
				5.888607978820801,
				288.9227294921875
			]
		},
		{
			"name":"checkpoint.010",
			"scale":[
				2,
				2,
				2
			],
			"translation":[
				109.24293518066406,
				8.5870943069458,
				427.0218505859375
			]
		},
		{
			"name":"checkpoint.011",
			"scale":[
				2,
				2,
				2
			],
			"translation":[
				93.6709976196289,
				8.592023849487305,
				609.8034057617188
			]
		},
		{
			"mesh":2,
			"name":"StreetLight",
			"rotation":[
				0,
				0.7071068286895752,
				0,
				0.7071068286895752
			],
			"translation":[
				-93.63838958740234,
				4.820512771606445,
				-394.53765869140625
			]
		},
		{
			"mesh":2,
			"name":"StreetLight.002",
			"rotation":[
				0,
				0.384500652551651,
				0,
				0.9231247305870056
			],
			"translation":[
				-26.720806121826172,
				4.820512771606445,
				-382.58001708984375
			]
		},
		{
			"mesh":2,
			"name":"StreetLight.006",
			"rotation":[
				0,
				0.6195138096809387,
				0,
				0.7849857807159424
			],
			"translation":[
				-39.81378936767578,
				4.820512771606445,
				-391.3537292480469
			]
		},
		{
			"extensions":{
				"KHR_lights_punctual":{
					"light":4
				}
			},
			"name":"Spot.006",
			"rotation":[
				-0.6075705885887146,
				-0.09255623072385788,
				-0.07158149778842926,
				0.7856001257896423
			],
			"translation":[
				-38.76655578613281,
				10.223376274108887,
				-395.6063537597656
			]
		},
		{
			"mesh":2,
			"name":"StreetLight.005",
			"rotation":[
				0,
				-0.7786082029342651,
				0,
				0.6275103688240051
			],
			"translation":[
				-20.918142318725586,
				4.820512771606445,
				-413.5086364746094
			]
		},
		{
			"extensions":{
				"KHR_lights_punctual":{
					"light":5
				}
			},
			"name":"Spot.005",
			"rotation":[
				-0.06536336243152618,
				0.7865056991577148,
				0.6082708835601807,
				0.08451606333255768
			],
			"translation":[
				-21.878171920776367,
				10.223376274108887,
				-409.2355041503906
			]
		},
		{
			"mesh":2,
			"name":"StreetLight.004",
			"rotation":[
				0,
				-0.7118719816207886,
				0,
				0.7023093104362488
			],
			"translation":[
				-47.20587158203125,
				4.820512771606445,
				-417.0488586425781
			]
		},
		{
			"extensions":{
				"KHR_lights_punctual":{
					"light":6
				}
			},
			"name":"Spot.004",
			"rotation":[
				-0.004136818926781416,
				0.7910155653953552,
				0.6117587089538574,
				0.005348985083401203
			],
			"translation":[
				-47.29533386230469,
				10.223376274108887,
				-412.6701354980469
			]
		},
		{
			"mesh":2,
			"name":"StreetLight.003",
			"rotation":[
				0,
				-0.7118719816207886,
				0,
				0.7023093104362488
			],
			"translation":[
				-76.71000671386719,
				4.820512771606445,
				-417.6806335449219
			]
		},
		{
			"mesh":2,
			"name":"StreetLight.001",
			"rotation":[
				0,
				0.7071068286895752,
				0,
				0.7071068286895752
			],
			"translation":[
				-62.583900451660156,
				4.692384243011475,
				-394.3302917480469
			]
		},
		{
			"extensions":{
				"KHR_lights_punctual":{
					"light":7
				}
			},
			"name":"Spot.002",
			"rotation":[
				-0.6117727160453796,
				0,
				0,
				0.7910336256027222
			],
			"translation":[
				-62.55365753173828,
				10.095248222351074,
				-398.70977783203125
			]
		}
	],
	"materials":[
		{
			"doubleSided":true,
			"name":"Material",
			"normalTexture":{
				"index":0
			},
			"pbrMetallicRoughness":{
				"baseColorTexture":{
					"index":1
				},
				"metallicFactor":0,
				"roughnessFactor":0.6290323138237
			}
		},
		{
			"doubleSided":true,
			"name":"Ground",
			"normalTexture":{
				"index":2
			},
			"pbrMetallicRoughness":{
				"baseColorTexture":{
					"index":3
				},
				"metallicFactor":0,
				"metallicRoughnessTexture":{
					"index":4
				}
			}
		}
	],
	"meshes":[
		{
			"name":"Plane",
			"primitives":[
				{
					"attributes":{
						"POSITION":0,
						"NORMAL":1,
						"TEXCOORD_0":2
					},
					"indices":3,
					"material":0
				}
			]
		},
		{
			"name":"Plane.002",
			"primitives":[
				{
					"attributes":{
						"POSITION":4,
						"NORMAL":5,
						"TEXCOORD_0":6
					},
					"indices":7,
					"material":1
				}
			]
		},
		{
			"name":"Cylinder",
			"primitives":[
				{
					"attributes":{
						"POSITION":8,
						"NORMAL":9,
						"TEXCOORD_0":10
					},
					"indices":11
				}
			]
		}
	],
	"textures":[
		{
			"sampler":0,
			"source":0
		},
		{
			"sampler":0,
			"source":1
		},
		{
			"sampler":0,
			"source":2
		},
		{
			"sampler":0,
			"source":3
		},
		{
			"sampler":0,
			"source":4
		}
	],
	"images":[
		{
			"mimeType":"image/png",
			"name":"road_normal.png",
			"uri":"road_normal_png.png"
		},
		{
			"mimeType":"image/png",
			"name":"road_bright.png",
			"uri":"road_bright_png.png"
		},
		{
			"mimeType":"image/png",
			"name":"dirtgrass_normals",
			"uri":"dirtgrass_normals.png"
		},
		{
			"mimeType":"image/png",
			"name":"dirtgrass_noshadow",
			"uri":"dirtgrass_noshadow.png"
		},
		{
			"mimeType":"image/png",
			"name":"dirtgrass_roughness",
			"uri":"dirtgrass_roughness.png"
		}
	],
	"accessors":[
		{
			"bufferView":0,
			"componentType":5126,
			"count":2664,
			"max":[
				113.56636810302734,
				3.549456596374512e-05,
				775.9961547851562
			],
			"min":[
				-109.8557357788086,
				-8.694938659667969,
				-101.1976547241211
			],
			"type":"VEC3"
		},
		{
			"bufferView":1,
			"componentType":5126,
			"count":2664,
			"type":"VEC3"
		},
		{
			"bufferView":2,
			"componentType":5126,
			"count":2664,
			"type":"VEC2"
		},
		{
			"bufferView":3,
			"componentType":5123,
			"count":3996,
			"type":"SCALAR"
		},
		{
			"bufferView":4,
			"componentType":5126,
			"count":2231,
			"max":[
				158.03179931640625,
				15.214576721191406,
				629.6034545898438
			],
			"min":[
				-158.43309020996094,
				-4.443618297576904,
				-629.5635375976562
			],
			"type":"VEC3"
		},
		{
			"bufferView":5,
			"componentType":5126,
			"count":2231,
			"type":"VEC3"
		},
		{
			"bufferView":6,
			"componentType":5126,
			"count":2231,
			"type":"VEC2"
		},
		{
			"bufferView":7,
			"componentType":5123,
			"count":12867,
			"type":"SCALAR"
		},
		{
			"bufferView":8,
			"componentType":5126,
			"count":336,
			"max":[
				4.8708062171936035,
				6.016096591949463,
				0.36327943205833435
			],
			"min":[
				-0.20000000298023224,
				-5.5,
				-0.36327943205833435
			],
			"type":"VEC3"
		},
		{
			"bufferView":9,
			"componentType":5126,
			"count":336,
			"type":"VEC3"
		},
		{
			"bufferView":10,
			"componentType":5126,
			"count":336,
			"type":"VEC2"
		},
		{
			"bufferView":11,
			"componentType":5123,
			"count":1116,
			"type":"SCALAR"
		}
	],
	"bufferViews":[
		{
			"buffer":0,
			"byteLength":31968,
			"byteOffset":0,
			"target":34962
		},
		{
			"buffer":0,
			"byteLength":31968,
			"byteOffset":31968,
			"target":34962
		},
		{
			"buffer":0,
			"byteLength":21312,
			"byteOffset":63936,
			"target":34962
		},
		{
			"buffer":0,
			"byteLength":7992,
			"byteOffset":85248,
			"target":34963
		},
		{
			"buffer":0,
			"byteLength":26772,
			"byteOffset":93240,
			"target":34962
		},
		{
			"buffer":0,
			"byteLength":26772,
			"byteOffset":120012,
			"target":34962
		},
		{
			"buffer":0,
			"byteLength":17848,
			"byteOffset":146784,
			"target":34962
		},
		{
			"buffer":0,
			"byteLength":25734,
			"byteOffset":164632,
			"target":34963
		},
		{
			"buffer":0,
			"byteLength":4032,
			"byteOffset":190368,
			"target":34962
		},
		{
			"buffer":0,
			"byteLength":4032,
			"byteOffset":194400,
			"target":34962
		},
		{
			"buffer":0,
			"byteLength":2688,
			"byteOffset":198432,
			"target":34962
		},
		{
			"buffer":0,
			"byteLength":2232,
			"byteOffset":201120,
			"target":34963
		}
	],
	"samplers":[
		{
			"magFilter":9729,
			"minFilter":9987
		}
	],
	"buffers":[
		{
			"byteLength":203352,
			"uri":"map1.bin"
		}
	]
}
