{
	"asset":{
		"generator":"Khronos glTF Blender I/O v4.4.56",
		"version":"2.0"
	},
	"scene":0,
	"scenes":[
		{
			"name":"Scene",
			"nodes":[
				0,
				1,
				2,
				3,
				4,
				5,
				6
			]
		}
	],
	"nodes":[
		{
			"mesh":0,
			"name":"Car"
		},
		{
			"name":"WheelPosFL",
			"rotation":[
				0,
				0.7071068286895752,
				0,
				0.7071068286895752
			],
			"scale":[
				0.44999998807907104,
				0.44999998807907104,
				1
			],
			"translation":[
				1.1991782188415527,
				-0.3950168192386627,
				2.135955333709717
			]
		},
		{
			"name":"WheelPosRL",
			"rotation":[
				0,
				0.7071068286895752,
				0,
				0.7071068286895752
			],
			"scale":[
				0.44999998807907104,
				0.44999998807907104,
				1
			],
			"translation":[
				1.1991782188415527,
				-0.3950168192386627,
				-2.1697587966918945
			]
		},
		{
			"name":"WheelPosFR",
			"rotation":[
				0,
				0.7071068286895752,
				0,
				0.7071068286895752
			],
			"scale":[
				0.44999998807907104,
				0.44999998807907104,
				1
			],
			"translation":[
				-1.1032438278198242,
				-0.3950168192386627,
				2.135955333709717
			]
		},
		{
			"name":"WheelPosRR",
			"rotation":[
				0,
				0.7071068286895752,
				0,
				0.7071068286895752
			],
			"scale":[
				0.44999998807907104,
				0.44999998807907104,
				1
			],
			"translation":[
				-1.1032438278198242,
				-0.3950168192386627,
				-2.169862747192383
			]
		},
		{
			"name":"CollisionBox",
			"scale":[
				1,
				0.5304471254348755,
				3.05839204788208
			],
			"translation":[
				0,
				0.028884736821055412,
				0
			]
		},
		{
			"name":"CollisionBox.001",
			"scale":[
				1,
				0.34204837679862976,
				1.6036790609359741
			],
			"translation":[
				0,
				0.9295525550842285,
				-0.3720068633556366
			]
		}
	],
	"materials":[
		{
			"doubleSided":true,
			"name":"Body",
			"pbrMetallicRoughness":{
				"baseColorFactor":[
					0.42757323384284973,
					0.34726208448410034,
					0.5374164581298828,
					1
				],
				"metallicFactor":0,
				"roughnessFactor":0.04504501819610596
			}
		},
		{
			"doubleSided":true,
			"name":"Window",
			"pbrMetallicRoughness":{
				"baseColorFactor":[
					0.48852768540382385,
					0.6561113595962524,
					0.78377366065979,
					1
				],
				"metallicFactor":0,
				"roughnessFactor":0.5
			}
		},
		{
			"doubleSided":true,
			"name":"Unpainted Metal",
			"pbrMetallicRoughness":{
				"baseColorFactor":[
					0.800000011920929,
					0.800000011920929,
					0.800000011920929,
					1
				],
				"metallicFactor":0,
				"roughnessFactor":0.5
			}
		},
		{
			"doubleSided":true,
			"name":"Backlight",
			"pbrMetallicRoughness":{
				"baseColorFactor":[
					0.8004578351974487,
					0.2256462424993515,
					0.23162966966629028,
					1
				],
				"metallicFactor":0,
				"roughnessFactor":0.5
			}
		},
		{
			"doubleSided":true,
			"name":"CarBottom",
			"pbrMetallicRoughness":{
				"baseColorFactor":[
					0.01860327273607254,
					0.01860327273607254,
					0.01860327273607254,
					1
				],
				"metallicFactor":0,
				"roughnessFactor":0.5
			}
		}
	],
	"meshes":[
		{
			"name":"Cube",
			"primitives":[
				{
					"attributes":{
						"POSITION":0,
						"NORMAL":1,
						"TEXCOORD_0":2
					},
					"indices":3,
					"material":0
				},
				{
					"attributes":{
						"POSITION":4,
						"NORMAL":5,
						"TEXCOORD_0":6
					},
					"indices":7,
					"material":1
				},
				{
					"attributes":{
						"POSITION":8,
						"NORMAL":9,
						"TEXCOORD_0":10
					},
					"indices":11,
					"material":2
				},
				{
					"attributes":{
						"POSITION":12,
						"NORMAL":13,
						"TEXCOORD_0":14
					},
					"indices":15,
					"material":3
				},
				{
					"attributes":{
						"POSITION":16,
						"NORMAL":17,
						"TEXCOORD_0":18
					},
					"indices":19,
					"material":4
				}
			]
		}
	],
	"accessors":[
		{
			"bufferView":0,
			"componentType":5126,
			"count":606,
			"max":[
				1.3260401487350464,
				1.2976794242858887,
				3.2623326778411865
			],
			"min":[
				-1.2510002851486206,
				-0.42205938696861267,
				-2.9851324558258057
			],
			"type":"VEC3"
		},
		{
			"bufferView":1,
			"componentType":5126,
			"count":606,
			"type":"VEC3"
		},
		{
			"bufferView":2,
			"componentType":5126,
			"count":606,
			"type":"VEC2"
		},
		{
			"bufferView":3,
			"componentType":5123,
			"count":1458,
			"type":"SCALAR"
		},
		{
			"bufferView":4,
			"componentType":5126,
			"count":54,
			"max":[
				1.5333518981933594,
				1.193050503730774,
				3.178488254547119
			],
			"min":[
				-1.4583120346069336,
				0.10781177878379822,
				-1.9942123889923096
			],
			"type":"VEC3"
		},
		{
			"bufferView":5,
			"componentType":5126,
			"count":54,
			"type":"VEC3"
		},
		{
			"bufferView":6,
			"componentType":5126,
			"count":54,
			"type":"VEC2"
		},
		{
			"bufferView":7,
			"componentType":5123,
			"count":132,
			"type":"SCALAR"
		},
		{
			"bufferView":8,
			"componentType":5126,
			"count":210,
			"max":[
				1.5577746629714966,
				0.776281476020813,
				3.2988946437835693
			],
			"min":[
				-1.4827347993850708,
				-0.35627683997154236,
				-3.192251205444336
			],
			"type":"VEC3"
		},
		{
			"bufferView":9,
			"componentType":5126,
			"count":210,
			"type":"VEC3"
		},
		{
			"bufferView":10,
			"componentType":5126,
			"count":210,
			"type":"VEC2"
		},
		{
			"bufferView":11,
			"componentType":5123,
			"count":564,
			"type":"SCALAR"
		},
		{
			"bufferView":12,
			"componentType":5126,
			"count":18,
			"max":[
				1.1009087562561035,
				0.4834367334842682,
				-2.793574571609497
			],
			"min":[
				-1.0258691310882568,
				0.10781177878379822,
				-3.052894115447998
			],
			"type":"VEC3"
		},
		{
			"bufferView":13,
			"componentType":5126,
			"count":18,
			"type":"VEC3"
		},
		{
			"bufferView":14,
			"componentType":5126,
			"count":18,
			"type":"VEC2"
		},
		{
			"bufferView":15,
			"componentType":5123,
			"count":72,
			"type":"SCALAR"
		},
		{
			"bufferView":16,
			"componentType":5126,
			"count":24,
			"max":[
				0.928146481513977,
				0.23448720574378967,
				2.903339147567749
			],
			"min":[
				-0.8531066179275513,
				-0.38417163491249084,
				-2.867098569869995
			],
			"type":"VEC3"
		},
		{
			"bufferView":17,
			"componentType":5126,
			"count":24,
			"type":"VEC3"
		},
		{
			"bufferView":18,
			"componentType":5126,
			"count":24,
			"type":"VEC2"
		},
		{
			"bufferView":19,
			"componentType":5123,
			"count":36,
			"type":"SCALAR"
		}
	],
	"bufferViews":[
		{
			"buffer":0,
			"byteLength":7272,
			"byteOffset":0,
			"target":34962
		},
		{
			"buffer":0,
			"byteLength":7272,
			"byteOffset":7272,
			"target":34962
		},
		{
			"buffer":0,
			"byteLength":4848,
			"byteOffset":14544,
			"target":34962
		},
		{
			"buffer":0,
			"byteLength":2916,
			"byteOffset":19392,
			"target":34963
		},
		{
			"buffer":0,
			"byteLength":648,
			"byteOffset":22308,
			"target":34962
		},
		{
			"buffer":0,
			"byteLength":648,
			"byteOffset":22956,
			"target":34962
		},
		{
			"buffer":0,
			"byteLength":432,
			"byteOffset":23604,
			"target":34962
		},
		{
			"buffer":0,
			"byteLength":264,
			"byteOffset":24036,
			"target":34963
		},
		{
			"buffer":0,
			"byteLength":2520,
			"byteOffset":24300,
			"target":34962
		},
		{
			"buffer":0,
			"byteLength":2520,
			"byteOffset":26820,
			"target":34962
		},
		{
			"buffer":0,
			"byteLength":1680,
			"byteOffset":29340,
			"target":34962
		},
		{
			"buffer":0,
			"byteLength":1128,
			"byteOffset":31020,
			"target":34963
		},
		{
			"buffer":0,
			"byteLength":216,
			"byteOffset":32148,
			"target":34962
		},
		{
			"buffer":0,
			"byteLength":216,
			"byteOffset":32364,
			"target":34962
		},
		{
			"buffer":0,
			"byteLength":144,
			"byteOffset":32580,
			"target":34962
		},
		{
			"buffer":0,
			"byteLength":144,
			"byteOffset":32724,
			"target":34963
		},
		{
			"buffer":0,
			"byteLength":288,
			"byteOffset":32868,
			"target":34962
		},
		{
			"buffer":0,
			"byteLength":288,
			"byteOffset":33156,
			"target":34962
		},
		{
			"buffer":0,
			"byteLength":192,
			"byteOffset":33444,
			"target":34962
		},
		{
			"buffer":0,
			"byteLength":72,
			"byteOffset":33636,
			"target":34963
		}
	],
	"buffers":[
		{
			"byteLength":33708,
			"uri":"mycar.bin"
		}
	]
}
