{
	"asset":{
		"generator":"Khronos glTF Blender I/O v4.4.56",
		"version":"2.0"
	},
	"extensionsUsed":[
		"KHR_materials_emissive_strength"
	],
	"scene":0,
	"scenes":[
		{
			"name":"Scene",
			"nodes":[
				0,
				1,
				2,
				3,
				4,
				5,
				6
			]
		}
	],
	"nodes":[
		{
			"mesh":0,
			"name":"Car",
			"translation":[
				0,
				0.33792537450790405,
				0
			]
		},
		{
			"name":"WheelPosFL",
			"rotation":[
				0,
				0.7071068286895752,
				0,
				0.7071068286895752
			],
			"scale":[
				0.44999998807907104,
				0.44999998807907104,
				1
			],
			"translation":[
				1.1991782188415527,
				-0.05709146335721016,
				2.135955333709717
			]
		},
		{
			"name":"WheelPosRL",
			"rotation":[
				0,
				0.7071068286895752,
				0,
				0.7071068286895752
			],
			"scale":[
				0.44999998807907104,
				0.44999998807907104,
				1
			],
			"translation":[
				1.1991782188415527,
				-0.05709146335721016,
				-2.1697587966918945
			]
		},
		{
			"name":"WheelPosFR",
			"rotation":[
				0,
				0.7071068286895752,
				0,
				0.7071068286895752
			],
			"scale":[
				0.44999998807907104,
				0.44999998807907104,
				1
			],
			"translation":[
				-1.1032438278198242,
				-0.05709146335721016,
				2.135955333709717
			]
		},
		{
			"name":"WheelPosRR",
			"rotation":[
				0,
				0.7071068286895752,
				0,
				0.7071068286895752
			],
			"scale":[
				0.44999998807907104,
				0.44999998807907104,
				1
			],
			"translation":[
				-1.1032438278198242,
				-0.05709146335721016,
				-2.169862747192383
			]
		},
		{
			"name":"CollisionBox",
			"scale":[
				1,
				0.5304471254348755,
				3.05839204788208
			],
			"translation":[
				0,
				0.3668101131916046,
				0
			]
		},
		{
			"name":"CollisionBox.001",
			"scale":[
				1,
				0.34204837679862976,
				1.6036790609359741
			],
			"translation":[
				0,
				1.2674778699874878,
				-0.3720068633556366
			]
		}
	],
	"materials":[
		{
			"doubleSided":true,
			"name":"Body",
			"pbrMetallicRoughness":{
				"baseColorFactor":[
					0.1285400390625,
					0.3212890625,
					0.11431884765625,
					1
				],
				"metallicFactor":0,
				"roughnessFactor":0.20430107414722443
			}
		},
		{
			"doubleSided":true,
			"name":"Window",
			"pbrMetallicRoughness":{
				"baseColorFactor":[
					0.44663381576538086,
					0.46603453159332275,
					0.5271499752998352,
					1
				],
				"metallicFactor":0,
				"roughnessFactor":0.06451612710952759
			}
		},
		{
			"doubleSided":true,
			"name":"Unpainted Metal",
			"pbrMetallicRoughness":{
				"baseColorFactor":[
					0.800000011920929,
					0.800000011920929,
					0.800000011920929,
					1
				],
				"metallicFactor":0,
				"roughnessFactor":0.5
			}
		},
		{
			"doubleSided":true,
			"emissiveFactor":[
				0.5430860672541797,
				0.026956210913883893,
				0.03530749468162675
			],
			"name":"Backlight",
			"pbrMetallicRoughness":{
				"baseColorFactor":[
					0.7980077266693115,
					0.19715188443660736,
					0.19715188443660736,
					1
				],
				"metallicFactor":0,
				"roughnessFactor":0
			}
		},
		{
			"doubleSided":true,
			"name":"CarBottom",
			"pbrMetallicRoughness":{
				"baseColorFactor":[
					0.800000011920929,
					0.800000011920929,
					0.800000011920929,
					1
				],
				"metallicFactor":0,
				"roughnessFactor":0
			}
		},
		{
			"doubleSided":true,
			"emissiveFactor":[
				1,
				0.9316929578781128,
				0.5617055296897888
			],
			"extensions":{
				"KHR_materials_emissive_strength":{
					"emissiveStrength":2.1999998092651367
				}
			},
			"name":"HeadLight",
			"pbrMetallicRoughness":{
				"baseColorFactor":[
					0.39915212988853455,
					0.39915212988853455,
					0.39915212988853455,
					1
				],
				"metallicFactor":0,
				"roughnessFactor":0
			}
		}
	],
	"meshes":[
		{
			"name":"Cube",
			"primitives":[
				{
					"attributes":{
						"POSITION":0,
						"NORMAL":1,
						"TEXCOORD_0":2
					},
					"indices":3,
					"material":0
				},
				{
					"attributes":{
						"POSITION":4,
						"NORMAL":5,
						"TEXCOORD_0":6
					},
					"indices":7,
					"material":1
				},
				{
					"attributes":{
						"POSITION":8,
						"NORMAL":9,
						"TEXCOORD_0":10
					},
					"indices":11,
					"material":2
				},
				{
					"attributes":{
						"POSITION":12,
						"NORMAL":13,
						"TEXCOORD_0":14
					},
					"indices":15,
					"material":3
				},
				{
					"attributes":{
						"POSITION":16,
						"NORMAL":17,
						"TEXCOORD_0":18
					},
					"indices":19,
					"material":4
				},
				{
					"attributes":{
						"POSITION":20,
						"NORMAL":21,
						"TEXCOORD_0":22
					},
					"indices":23,
					"material":5
				}
			]
		}
	],
	"accessors":[
		{
			"bufferView":0,
			"componentType":5126,
			"count":734,
			"max":[
				1.3260401487350464,
				1.2976794242858887,
				3.2623326778411865
			],
			"min":[
				-1.2510002851486206,
				-0.42205938696861267,
				-2.9851324558258057
			],
			"type":"VEC3"
		},
		{
			"bufferView":1,
			"componentType":5126,
			"count":734,
			"type":"VEC3"
		},
		{
			"bufferView":2,
			"componentType":5126,
			"count":734,
			"type":"VEC2"
		},
		{
			"bufferView":3,
			"componentType":5123,
			"count":1590,
			"type":"SCALAR"
		},
		{
			"bufferView":4,
			"componentType":5126,
			"count":64,
			"max":[
				1.5333518981933594,
				1.193050503730774,
				3.136035919189453
			],
			"min":[
				-1.4583120346069336,
				0.10781177878379822,
				-1.9942123889923096
			],
			"type":"VEC3"
		},
		{
			"bufferView":5,
			"componentType":5126,
			"count":64,
			"type":"VEC3"
		},
		{
			"bufferView":6,
			"componentType":5126,
			"count":64,
			"type":"VEC2"
		},
		{
			"bufferView":7,
			"componentType":5123,
			"count":120,
			"type":"SCALAR"
		},
		{
			"bufferView":8,
			"componentType":5126,
			"count":314,
			"max":[
				1.5577746629714966,
				0.776281476020813,
				3.2988946437835693
			],
			"min":[
				-1.4827347993850708,
				-0.35627683997154236,
				-3.192251205444336
			],
			"type":"VEC3"
		},
		{
			"bufferView":9,
			"componentType":5126,
			"count":314,
			"type":"VEC3"
		},
		{
			"bufferView":10,
			"componentType":5126,
			"count":314,
			"type":"VEC2"
		},
		{
			"bufferView":11,
			"componentType":5123,
			"count":564,
			"type":"SCALAR"
		},
		{
			"bufferView":12,
			"componentType":5126,
			"count":42,
			"max":[
				1.1009087562561035,
				0.4834367334842682,
				-2.793574571609497
			],
			"min":[
				-1.0258691310882568,
				0.10781177878379822,
				-3.052894115447998
			],
			"type":"VEC3"
		},
		{
			"bufferView":13,
			"componentType":5126,
			"count":42,
			"type":"VEC3"
		},
		{
			"bufferView":14,
			"componentType":5126,
			"count":42,
			"type":"VEC2"
		},
		{
			"bufferView":15,
			"componentType":5123,
			"count":72,
			"type":"SCALAR"
		},
		{
			"bufferView":16,
			"componentType":5126,
			"count":24,
			"max":[
				0.928146481513977,
				0.23448720574378967,
				2.903339147567749
			],
			"min":[
				-0.8531066179275513,
				-0.38417163491249084,
				-2.867098569869995
			],
			"type":"VEC3"
		},
		{
			"bufferView":17,
			"componentType":5126,
			"count":24,
			"type":"VEC3"
		},
		{
			"bufferView":18,
			"componentType":5126,
			"count":24,
			"type":"VEC2"
		},
		{
			"bufferView":19,
			"componentType":5123,
			"count":36,
			"type":"SCALAR"
		},
		{
			"bufferView":20,
			"componentType":5126,
			"count":26,
			"max":[
				1.100908875465393,
				0.4834367334842682,
				3.178488254547119
			],
			"min":[
				-1.0258687734603882,
				0.10781177878379822,
				2.919168710708618
			],
			"type":"VEC3"
		},
		{
			"bufferView":21,
			"componentType":5126,
			"count":26,
			"type":"VEC3"
		},
		{
			"bufferView":22,
			"componentType":5126,
			"count":26,
			"type":"VEC2"
		},
		{
			"bufferView":23,
			"componentType":5123,
			"count":48,
			"type":"SCALAR"
		}
	],
	"bufferViews":[
		{
			"buffer":0,
			"byteLength":8808,
			"byteOffset":0,
			"target":34962
		},
		{
			"buffer":0,
			"byteLength":8808,
			"byteOffset":8808,
			"target":34962
		},
		{
			"buffer":0,
			"byteLength":5872,
			"byteOffset":17616,
			"target":34962
		},
		{
			"buffer":0,
			"byteLength":3180,
			"byteOffset":23488,
			"target":34963
		},
		{
			"buffer":0,
			"byteLength":768,
			"byteOffset":26668,
			"target":34962
		},
		{
			"buffer":0,
			"byteLength":768,
			"byteOffset":27436,
			"target":34962
		},
		{
			"buffer":0,
			"byteLength":512,
			"byteOffset":28204,
			"target":34962
		},
		{
			"buffer":0,
			"byteLength":240,
			"byteOffset":28716,
			"target":34963
		},
		{
			"buffer":0,
			"byteLength":3768,
			"byteOffset":28956,
			"target":34962
		},
		{
			"buffer":0,
			"byteLength":3768,
			"byteOffset":32724,
			"target":34962
		},
		{
			"buffer":0,
			"byteLength":2512,
			"byteOffset":36492,
			"target":34962
		},
		{
			"buffer":0,
			"byteLength":1128,
			"byteOffset":39004,
			"target":34963
		},
		{
			"buffer":0,
			"byteLength":504,
			"byteOffset":40132,
			"target":34962
		},
		{
			"buffer":0,
			"byteLength":504,
			"byteOffset":40636,
			"target":34962
		},
		{
			"buffer":0,
			"byteLength":336,
			"byteOffset":41140,
			"target":34962
		},
		{
			"buffer":0,
			"byteLength":144,
			"byteOffset":41476,
			"target":34963
		},
		{
			"buffer":0,
			"byteLength":288,
			"byteOffset":41620,
			"target":34962
		},
		{
			"buffer":0,
			"byteLength":288,
			"byteOffset":41908,
			"target":34962
		},
		{
			"buffer":0,
			"byteLength":192,
			"byteOffset":42196,
			"target":34962
		},
		{
			"buffer":0,
			"byteLength":72,
			"byteOffset":42388,
			"target":34963
		},
		{
			"buffer":0,
			"byteLength":312,
			"byteOffset":42460,
			"target":34962
		},
		{
			"buffer":0,
			"byteLength":312,
			"byteOffset":42772,
			"target":34962
		},
		{
			"buffer":0,
			"byteLength":208,
			"byteOffset":43084,
			"target":34962
		},
		{
			"buffer":0,
			"byteLength":96,
			"byteOffset":43292,
			"target":34963
		}
	],
	"buffers":[
		{
			"byteLength":43388,
			"uri":"mycar.bin"
		}
	]
}
