{
	"asset":{
		"generator":"Khronos glTF Blender I/O v4.4.56",
		"version":"2.0"
	},
	"scene":0,
	"scenes":[
		{
			"name":"Scene",
			"nodes":[
				0,
				1,
				2,
				3,
				4,
				5,
				6,
				7,
				8,
				9,
				10,
				11
			]
		}
	],
	"nodes":[
		{
			"mesh":0,
			"name":"SilviaS13"
		},
		{
			"mesh":1,
			"name":"Numberplate",
			"rotation":[
				0,
				-1,
				0,
				1.6292068494294654e-07
			],
			"scale":[
				0.5,
				0.5,
				0.5
			],
			"translation":[
				-0.00027169406530447304,
				0.039644479751586914,
				2.2990188598632812
			]
		},
		{
			"mesh":1,
			"name":"Numberplate.001",
			"rotation":[
				0,
				-1,
				0,
				1.6292068494294654e-07
			],
			"scale":[
				0.5,
				0.5,
				0.5
			],
			"translation":[
				-0.0002720824268180877,
				0.06226864457130432,
				-2.1431632041931152
			]
		},
		{
			"name":"WheelPosFL",
			"rotation":[
				0,
				0.7071068286895752,
				0,
				0.7071068286895752
			],
			"scale":[
				0.3146580755710602,
				0.3146580755710602,
				0.3146580755710602
			],
			"translation":[
				0.6764881014823914,
				-0.02962598204612732,
				1.361202359199524
			]
		},
		{
			"name":"WheelPosFR",
			"rotation":[
				0,
				0.7071068286895752,
				0,
				0.7071068286895752
			],
			"scale":[
				0.3146580755710602,
				0.3146580755710602,
				0.3146580755710602
			],
			"translation":[
				-0.677031934261322,
				-0.02962598204612732,
				1.361202597618103
			]
		},
		{
			"name":"WheelPosRR",
			"rotation":[
				0,
				0.7071068286895752,
				0,
				0.7071068286895752
			],
			"scale":[
				0.3146580755710602,
				0.3146580755710602,
				0.3146580755710602
			],
			"translation":[
				-0.6770320534706116,
				-0.02962598204612732,
				-1.1021374464035034
			]
		},
		{
			"name":"WheelPosRL",
			"rotation":[
				0,
				0.7071068286895752,
				0,
				0.7071068286895752
			],
			"scale":[
				0.3146580755710602,
				0.3146580755710602,
				0.3146580755710602
			],
			"translation":[
				0.6764879822731018,
				-0.02962598204612732,
				-1.1021374464035034
			]
		},
		{
			"name":"HeadLightRight",
			"rotation":[
				0,
				-0.6127787232398987,
				-0.790254533290863,
				9.983432391891256e-08
			],
			"scale":[
				0.5,
				0.5,
				0.5
			],
			"translation":[
				-0.5189324021339417,
				0.22397738695144653,
				2.1258115768432617
			]
		},
		{
			"name":"HeadLightLeft",
			"rotation":[
				0,
				-0.6127787232398987,
				-0.790254533290863,
				9.983432391891256e-08
			],
			"scale":[
				0.5,
				0.5,
				0.5
			],
			"translation":[
				0.5194763541221619,
				0.22397738695144653,
				2.1258115768432617
			]
		},
		{
			"name":"CollisionBox",
			"rotation":[
				0,
				-1,
				0,
				1.6292068494294654e-07
			],
			"scale":[
				0.8091731071472168,
				0.32169798016548157,
				1.5732738971710205
			],
			"translation":[
				-0.0002719344920478761,
				0.19040480256080627,
				-0.450950026512146
			]
		},
		{
			"name":"CollisionBox.001",
			"rotation":[
				0,
				-1,
				0,
				1.6292068494294654e-07
			],
			"scale":[
				0.823228120803833,
				0.23887713253498077,
				0.5507221817970276
			],
			"translation":[
				-0.0002717462775763124,
				0.10865004360675812,
				1.7019730806350708
			]
		},
		{
			"name":"CollisionBox.002",
			"rotation":[
				0,
				-1,
				0,
				1.6292068494294654e-07
			],
			"scale":[
				0.5960394144058228,
				0.17694920301437378,
				0.7044897675514221
			],
			"translation":[
				-0.00027192116249352694,
				0.7056593894958496,
				-0.29837119579315186
			]
		}
	],
	"materials":[
		{
			"doubleSided":true,
			"name":"WindowRubber",
			"pbrMetallicRoughness":{
				"baseColorFactor":[
					0.004590991418808699,
					0.004590991418808699,
					0.004590991418808699,
					1
				],
				"metallicFactor":0,
				"roughnessFactor":0.5821917653083801
			}
		},
		{
			"doubleSided":true,
			"name":"Metal",
			"pbrMetallicRoughness":{
				"baseColorFactor":[
					0.2911912500858307,
					0.2606784701347351,
					0.18091872334480286,
					1
				],
				"metallicFactor":0,
				"roughnessFactor":0.5
			}
		},
		{
			"doubleSided":true,
			"name":"Window",
			"pbrMetallicRoughness":{
				"baseColorFactor":[
					0.18794679641723633,
					0.25702017545700073,
					0.3583163022994995,
					1
				],
				"metallicFactor":0,
				"roughnessFactor":0.021428585052490234
			}
		},
		{
			"doubleSided":true,
			"name":"Trim",
			"pbrMetallicRoughness":{
				"baseColorFactor":[
					0.06595800817012787,
					0.06411150842905045,
					0.039626628160476685,
					1
				],
				"metallicFactor":0,
				"roughnessFactor":0.7714285850524902
			}
		},
		{
			"doubleSided":true,
			"name":"Grill",
			"pbrMetallicRoughness":{
				"baseColorFactor":[
					0,
					0,
					0,
					1
				],
				"metallicFactor":0,
				"roughnessFactor":0.5
			}
		},
		{
			"doubleSided":true,
			"name":"Indicator",
			"pbrMetallicRoughness":{
				"baseColorFactor":[
					0.20212435722351074,
					0.07848756015300751,
					0.007860388606786728,
					1
				],
				"metallicFactor":0,
				"roughnessFactor":0.3904109597206116
			}
		},
		{
			"doubleSided":true,
			"name":"Black Hole",
			"pbrMetallicRoughness":{
				"baseColorFactor":[
					0,
					0,
					0,
					1
				]
			}
		},
		{
			"doubleSided":true,
			"name":"Material.001",
			"pbrMetallicRoughness":{
				"baseColorFactor":[
					0.20250195264816284,
					0.009758315980434418,
					0.01268809288740158,
					1
				],
				"metallicFactor":0,
				"roughnessFactor":0.3933333158493042
			}
		},
		{
			"doubleSided":true,
			"name":"Material.002",
			"pbrMetallicRoughness":{
				"baseColorFactor":[
					0.09202387183904648,
					0.09202387183904648,
					0.09202387183904648,
					1
				],
				"metallicFactor":0,
				"roughnessFactor":0.5
			}
		},
		{
			"doubleSided":true,
			"name":"NP",
			"pbrMetallicRoughness":{
				"baseColorFactor":[
					0.18055151402950287,
					0.18055151402950287,
					0.18055151402950287,
					1
				],
				"metallicFactor":0,
				"roughnessFactor":0.5
			}
		}
	],
	"meshes":[
		{
			"name":"Cube.001",
			"primitives":[
				{
					"attributes":{
						"POSITION":0,
						"NORMAL":1,
						"TEXCOORD_0":2
					},
					"indices":3,
					"material":0
				},
				{
					"attributes":{
						"POSITION":4,
						"NORMAL":5,
						"TEXCOORD_0":6
					},
					"indices":7,
					"material":1
				},
				{
					"attributes":{
						"POSITION":8,
						"NORMAL":9,
						"TEXCOORD_0":10
					},
					"indices":11,
					"material":2
				},
				{
					"attributes":{
						"POSITION":12,
						"NORMAL":13,
						"TEXCOORD_0":14
					},
					"indices":15,
					"material":3
				},
				{
					"attributes":{
						"POSITION":16,
						"NORMAL":17,
						"TEXCOORD_0":18
					},
					"indices":19,
					"material":4
				},
				{
					"attributes":{
						"POSITION":20,
						"NORMAL":21,
						"TEXCOORD_0":22
					},
					"indices":23,
					"material":5
				},
				{
					"attributes":{
						"POSITION":24,
						"NORMAL":25,
						"TEXCOORD_0":26
					},
					"indices":27,
					"material":6
				},
				{
					"attributes":{
						"POSITION":28,
						"NORMAL":29,
						"TEXCOORD_0":30
					},
					"indices":31,
					"material":7
				},
				{
					"attributes":{
						"POSITION":32,
						"NORMAL":33,
						"TEXCOORD_0":34
					},
					"indices":35,
					"material":8
				}
			]
		},
		{
			"name":"Cube",
			"primitives":[
				{
					"attributes":{
						"POSITION":36,
						"NORMAL":37,
						"TEXCOORD_0":38
					},
					"indices":39,
					"material":9
				}
			]
		}
	],
	"accessors":[
		{
			"bufferView":0,
			"componentType":5126,
			"count":144,
			"max":[
				0.7645371556282043,
				0.875642716884613,
				0.9520413875579834
			],
			"min":[
				-0.7645371556282043,
				0.4668409824371338,
				-1.488025188446045
			],
			"type":"VEC3"
		},
		{
			"bufferView":1,
			"componentType":5126,
			"count":144,
			"type":"VEC3"
		},
		{
			"bufferView":2,
			"componentType":5126,
			"count":144,
			"type":"VEC2"
		},
		{
			"bufferView":3,
			"componentType":5123,
			"count":420,
			"type":"SCALAR"
		},
		{
			"bufferView":4,
			"componentType":5126,
			"count":594,
			"max":[
				0.9487606287002563,
				0.9035208225250244,
				2.2983648777008057
			],
			"min":[
				-0.9487606287002563,
				0.042342424392700195,
				-2.180772066116333
			],
			"type":"VEC3"
		},
		{
			"bufferView":5,
			"componentType":5126,
			"count":594,
			"type":"VEC3"
		},
		{
			"bufferView":6,
			"componentType":5126,
			"count":594,
			"type":"VEC2"
		},
		{
			"bufferView":7,
			"componentType":5123,
			"count":2370,
			"type":"SCALAR"
		},
		{
			"bufferView":8,
			"componentType":5126,
			"count":119,
			"max":[
				0.9370903968811035,
				0.8472868800163269,
				2.168055534362793
			],
			"min":[
				-0.9370903968811035,
				0.1637043058872223,
				-1.4128220081329346
			],
			"type":"VEC3"
		},
		{
			"bufferView":9,
			"componentType":5126,
			"count":119,
			"type":"VEC3"
		},
		{
			"bufferView":10,
			"componentType":5126,
			"count":119,
			"type":"VEC2"
		},
		{
			"bufferView":11,
			"componentType":5123,
			"count":348,
			"type":"SCALAR"
		},
		{
			"bufferView":12,
			"componentType":5126,
			"count":230,
			"max":[
				0.8447286486625671,
				0.277524471282959,
				2.2978525161743164
			],
			"min":[
				-0.8447286486625671,
				-0.16802000999450684,
				-2.1623477935791016
			],
			"type":"VEC3"
		},
		{
			"bufferView":13,
			"componentType":5126,
			"count":230,
			"type":"VEC3"
		},
		{
			"bufferView":14,
			"componentType":5126,
			"count":230,
			"type":"VEC2"
		},
		{
			"bufferView":15,
			"componentType":5123,
			"count":756,
			"type":"SCALAR"
		},
		{
			"bufferView":16,
			"componentType":5126,
			"count":10,
			"max":[
				0.501652181148529,
				0.10553213953971863,
				2.2863008975982666
			],
			"min":[
				-0.501652181148529,
				0.043282926082611084,
				2.22387433052063
			],
			"type":"VEC3"
		},
		{
			"bufferView":17,
			"componentType":5126,
			"count":10,
			"type":"VEC3"
		},
		{
			"bufferView":18,
			"componentType":5126,
			"count":10,
			"type":"VEC2"
		},
		{
			"bufferView":19,
			"componentType":5123,
			"count":24,
			"type":"SCALAR"
		},
		{
			"bufferView":20,
			"componentType":5126,
			"count":16,
			"max":[
				0.793289303779602,
				0.2713947296142578,
				2.2276275157928467
			],
			"min":[
				-0.793289303779602,
				0.04344320297241211,
				1.8363969326019287
			],
			"type":"VEC3"
		},
		{
			"bufferView":21,
			"componentType":5126,
			"count":16,
			"type":"VEC3"
		},
		{
			"bufferView":22,
			"componentType":5126,
			"count":16,
			"type":"VEC2"
		},
		{
			"bufferView":23,
			"componentType":5123,
			"count":24,
			"type":"SCALAR"
		},
		{
			"bufferView":24,
			"componentType":5126,
			"count":22,
			"max":[
				0.39930471777915955,
				0.03514862060546875,
				2.259594440460205
			],
			"min":[
				-0.39930471777915955,
				-0.07335036993026733,
				2.116177797317505
			],
			"type":"VEC3"
		},
		{
			"bufferView":25,
			"componentType":5126,
			"count":22,
			"type":"VEC3"
		},
		{
			"bufferView":26,
			"componentType":5126,
			"count":22,
			"type":"VEC2"
		},
		{
			"bufferView":27,
			"componentType":5123,
			"count":54,
			"type":"SCALAR"
		},
		{
			"bufferView":28,
			"componentType":5126,
			"count":12,
			"max":[
				0.8001251220703125,
				0.439603716135025,
				-1.9267295598983765
			],
			"min":[
				-0.8001251220703125,
				0.3043382465839386,
				-2.043306827545166
			],
			"type":"VEC3"
		},
		{
			"bufferView":29,
			"componentType":5126,
			"count":12,
			"type":"VEC3"
		},
		{
			"bufferView":30,
			"componentType":5126,
			"count":12,
			"type":"VEC2"
		},
		{
			"bufferView":31,
			"componentType":5123,
			"count":24,
			"type":"SCALAR"
		},
		{
			"bufferView":32,
			"componentType":5126,
			"count":150,
			"max":[
				0.8447286486625671,
				0.3169214129447937,
				1.7101163864135742
			],
			"min":[
				-0.8447286486625671,
				-0.16482728719711304,
				-1.4889893531799316
			],
			"type":"VEC3"
		},
		{
			"bufferView":33,
			"componentType":5126,
			"count":150,
			"type":"VEC3"
		},
		{
			"bufferView":34,
			"componentType":5126,
			"count":150,
			"type":"VEC2"
		},
		{
			"bufferView":35,
			"componentType":5123,
			"count":528,
			"type":"SCALAR"
		},
		{
			"bufferView":36,
			"componentType":5126,
			"count":72,
			"max":[
				0.3350851535797119,
				0.12644194066524506,
				0.004983552265912294
			],
			"min":[
				-0.3350851535797119,
				-0.12644194066524506,
				-0.004983552265912294
			],
			"type":"VEC3"
		},
		{
			"bufferView":37,
			"componentType":5126,
			"count":72,
			"type":"VEC3"
		},
		{
			"bufferView":38,
			"componentType":5126,
			"count":72,
			"type":"VEC2"
		},
		{
			"bufferView":39,
			"componentType":5123,
			"count":132,
			"type":"SCALAR"
		}
	],
	"bufferViews":[
		{
			"buffer":0,
			"byteLength":1728,
			"byteOffset":0,
			"target":34962
		},
		{
			"buffer":0,
			"byteLength":1728,
			"byteOffset":1728,
			"target":34962
		},
		{
			"buffer":0,
			"byteLength":1152,
			"byteOffset":3456,
			"target":34962
		},
		{
			"buffer":0,
			"byteLength":840,
			"byteOffset":4608,
			"target":34963
		},
		{
			"buffer":0,
			"byteLength":7128,
			"byteOffset":5448,
			"target":34962
		},
		{
			"buffer":0,
			"byteLength":7128,
			"byteOffset":12576,
			"target":34962
		},
		{
			"buffer":0,
			"byteLength":4752,
			"byteOffset":19704,
			"target":34962
		},
		{
			"buffer":0,
			"byteLength":4740,
			"byteOffset":24456,
			"target":34963
		},
		{
			"buffer":0,
			"byteLength":1428,
			"byteOffset":29196,
			"target":34962
		},
		{
			"buffer":0,
			"byteLength":1428,
			"byteOffset":30624,
			"target":34962
		},
		{
			"buffer":0,
			"byteLength":952,
			"byteOffset":32052,
			"target":34962
		},
		{
			"buffer":0,
			"byteLength":696,
			"byteOffset":33004,
			"target":34963
		},
		{
			"buffer":0,
			"byteLength":2760,
			"byteOffset":33700,
			"target":34962
		},
		{
			"buffer":0,
			"byteLength":2760,
			"byteOffset":36460,
			"target":34962
		},
		{
			"buffer":0,
			"byteLength":1840,
			"byteOffset":39220,
			"target":34962
		},
		{
			"buffer":0,
			"byteLength":1512,
			"byteOffset":41060,
			"target":34963
		},
		{
			"buffer":0,
			"byteLength":120,
			"byteOffset":42572,
			"target":34962
		},
		{
			"buffer":0,
			"byteLength":120,
			"byteOffset":42692,
			"target":34962
		},
		{
			"buffer":0,
			"byteLength":80,
			"byteOffset":42812,
			"target":34962
		},
		{
			"buffer":0,
			"byteLength":48,
			"byteOffset":42892,
			"target":34963
		},
		{
			"buffer":0,
			"byteLength":192,
			"byteOffset":42940,
			"target":34962
		},
		{
			"buffer":0,
			"byteLength":192,
			"byteOffset":43132,
			"target":34962
		},
		{
			"buffer":0,
			"byteLength":128,
			"byteOffset":43324,
			"target":34962
		},
		{
			"buffer":0,
			"byteLength":48,
			"byteOffset":43452,
			"target":34963
		},
		{
			"buffer":0,
			"byteLength":264,
			"byteOffset":43500,
			"target":34962
		},
		{
			"buffer":0,
			"byteLength":264,
			"byteOffset":43764,
			"target":34962
		},
		{
			"buffer":0,
			"byteLength":176,
			"byteOffset":44028,
			"target":34962
		},
		{
			"buffer":0,
			"byteLength":108,
			"byteOffset":44204,
			"target":34963
		},
		{
			"buffer":0,
			"byteLength":144,
			"byteOffset":44312,
			"target":34962
		},
		{
			"buffer":0,
			"byteLength":144,
			"byteOffset":44456,
			"target":34962
		},
		{
			"buffer":0,
			"byteLength":96,
			"byteOffset":44600,
			"target":34962
		},
		{
			"buffer":0,
			"byteLength":48,
			"byteOffset":44696,
			"target":34963
		},
		{
			"buffer":0,
			"byteLength":1800,
			"byteOffset":44744,
			"target":34962
		},
		{
			"buffer":0,
			"byteLength":1800,
			"byteOffset":46544,
			"target":34962
		},
		{
			"buffer":0,
			"byteLength":1200,
			"byteOffset":48344,
			"target":34962
		},
		{
			"buffer":0,
			"byteLength":1056,
			"byteOffset":49544,
			"target":34963
		},
		{
			"buffer":0,
			"byteLength":864,
			"byteOffset":50600,
			"target":34962
		},
		{
			"buffer":0,
			"byteLength":864,
			"byteOffset":51464,
			"target":34962
		},
		{
			"buffer":0,
			"byteLength":576,
			"byteOffset":52328,
			"target":34962
		},
		{
			"buffer":0,
			"byteLength":264,
			"byteOffset":52904,
			"target":34963
		}
	],
	"buffers":[
		{
			"byteLength":53168,
			"uri":"silvia_s13_ver2.bin"
		}
	]
}
