{
	"asset":{
		"generator":"Khronos glTF Blender I/O v4.4.56",
		"version":"2.0"
	},
	"scene":0,
	"scenes":[
		{
			"name":"Scene",
			"nodes":[
				0
			]
		}
	],
	"nodes":[
		{
			"mesh":0,
			"name":"WheelMesh",
			"translation":[
				2.6649186611175537,
				0.43829405307769775,
				5.618946075439453
			]
		}
	],
	"materials":[
		{
			"doubleSided":true,
			"name":"Tire",
			"pbrMetallicRoughness":{
				"baseColorFactor":[
					0.011241298168897629,
					0.011241298168897629,
					0.011241298168897629,
					1
				],
				"metallicFactor":0,
				"roughnessFactor":0.968468427658081
			}
		},
		{
			"doubleSided":true,
			"name":"Rim",
			"pbrMetallicRoughness":{
				"baseColorFactor":[
					0.44258439540863037,
					0.44258439540863037,
					0.44258439540863037,
					1
				],
				"metallicFactor":0,
				"roughnessFactor":0.21171170473098755
			}
		}
	],
	"meshes":[
		{
			"name":"Cylinder.002",
			"primitives":[
				{
					"attributes":{
						"POSITION":0,
						"NORMAL":1,
						"TEXCOORD_0":2
					},
					"indices":3,
					"material":0
				},
				{
					"attributes":{
						"POSITION":4,
						"NORMAL":5,
						"TEXCOORD_0":6
					},
					"indices":7,
					"material":1
				}
			]
		}
	],
	"accessors":[
		{
			"bufferView":0,
			"componentType":5126,
			"count":66,
			"max":[
				0.44499385356903076,
				0.15420493483543396,
				0.4449938237667084
			],
			"min":[
				-0.44499385356903076,
				-0.15420494973659515,
				-0.4449938237667084
			],
			"type":"VEC3"
		},
		{
			"bufferView":1,
			"componentType":5126,
			"count":66,
			"type":"VEC3"
		},
		{
			"bufferView":2,
			"componentType":5126,
			"count":66,
			"type":"VEC2"
		},
		{
			"bufferView":3,
			"componentType":5123,
			"count":240,
			"type":"SCALAR"
		},
		{
			"bufferView":4,
			"componentType":5126,
			"count":18,
			"max":[
				0.23884479701519012,
				0.4437117278575897,
				0.23884472250938416
			],
			"min":[
				-0.23884473741054535,
				-0.13067680597305298,
				-0.23884476721286774
			],
			"type":"VEC3"
		},
		{
			"bufferView":5,
			"componentType":5126,
			"count":18,
			"type":"VEC3"
		},
		{
			"bufferView":6,
			"componentType":5126,
			"count":18,
			"type":"VEC2"
		},
		{
			"bufferView":7,
			"componentType":5123,
			"count":48,
			"type":"SCALAR"
		}
	],
	"bufferViews":[
		{
			"buffer":0,
			"byteLength":792,
			"byteOffset":0,
			"target":34962
		},
		{
			"buffer":0,
			"byteLength":792,
			"byteOffset":792,
			"target":34962
		},
		{
			"buffer":0,
			"byteLength":528,
			"byteOffset":1584,
			"target":34962
		},
		{
			"buffer":0,
			"byteLength":480,
			"byteOffset":2112,
			"target":34963
		},
		{
			"buffer":0,
			"byteLength":216,
			"byteOffset":2592,
			"target":34962
		},
		{
			"buffer":0,
			"byteLength":216,
			"byteOffset":2808,
			"target":34962
		},
		{
			"buffer":0,
			"byteLength":144,
			"byteOffset":3024,
			"target":34962
		},
		{
			"buffer":0,
			"byteLength":96,
			"byteOffset":3168,
			"target":34963
		}
	],
	"buffers":[
		{
			"byteLength":3264,
			"uri":"wheel.bin"
		}
	]
}
